<?xml version="1.0" encoding="utf-8"?>
<!-- Generator: Adobe Illustrator 26.0.3, SVG Export Plug-In . SVG Version: 6.00 Build 0)  -->
<svg version="1.1" id="Layer_1" xmlns="http://www.w3.org/2000/svg" xmlns:xlink="http://www.w3.org/1999/xlink" x="0px" y="0px"
	 viewBox="0 0 69.4 71.5" style="enable-background:new 0 0 69.4 71.5;" xml:space="preserve">
<style type="text/css">
	.st0{fill:#FFFFFF;}
</style>
<g>
	<polyline class="st0" points="66,8.9 3.4,8.9 3.4,12.9 66,12.9 66,8.9 	"/>
	<path class="st0" d="M2.4,13.9v-6H67v6h-64H2.4 M66.7,6.9H2.7C2,6.9,1.5,7.5,1.5,8.2v5.3c0,0.1,0,0.1,0,0.1c0,0.7,0.6,1.3,1.3,1.3
		h63.9c0.8,0,1.3-0.6,1.3-1.2l0-0.1l0,0V8.2C67.9,7.5,67.4,6.9,66.7,6.9"/>
	<path class="st0" d="M2.9,13.4L2.9,13.4h0.5H2.9 M3.4,13.4L3.4,13.4 M3.4,12.9v-4H66v4H3.4 M67,7.9H2.4v6h0.5h64V7.9 M2.7,14.9
		c-0.7,0-1.3-0.6-1.3-1.3c0,0,0,0,0-0.1V8.2c0-0.7,0.6-1.3,1.3-1.3h63.9c0.7,0,1.3,0.6,1.3,1.3v5.3l0,0l0,0.1c0,0.6-0.5,1.2-1.3,1.2
		H2.7 M66.7,5.9L66.7,5.9H2.7h0c-0.6,0-1.2,0.3-1.6,0.7C0.7,7,0.5,7.6,0.5,8.2v5.3c0,0.1,0,0.1,0,0.1c0,0.6,0.2,1.2,0.7,1.6
		c0.4,0.4,1,0.7,1.6,0.7h0h63.9h0c0.6,0,1.2-0.3,1.6-0.7c0.4-0.4,0.6-1,0.6-1.6l0-0.2V8.2c0-0.6-0.2-1.2-0.7-1.6
		C67.8,6.2,67.3,5.9,66.7,5.9"/>
	<polyline class="st0" points="66,32.8 3.4,32.8 3.4,36.8 66,36.8 66,32.8 	"/>
	<path class="st0" d="M2.4,37.8v-6H67v6h-64H2.4 M66.7,30.9H2.7c-0.7,0-1.3,0.6-1.3,1.3v5.3c0,0.7,0.6,1.3,1.3,1.3h63.9
		c0.7,0,1.3-0.6,1.3-1.3v-5.3C67.9,31.5,67.4,30.9,66.7,30.9"/>
	<path class="st0" d="M2.9,37.3L2.9,37.3h0.5H2.9 M3.4,37.3L3.4,37.3 M3.4,36.8v-4H66v4H3.4 M67,31.8H2.4v6h0.5h64V31.8 M2.7,38.8
		c-0.7,0-1.3-0.6-1.3-1.3v-5.3c0-0.7,0.6-1.3,1.3-1.3h63.9c0.7,0,1.3,0.6,1.3,1.3v5.3c0,0.7-0.6,1.3-1.3,1.3H2.7 M66.7,29.9
		L66.7,29.9H2.7h0c-0.6,0-1.2,0.3-1.6,0.7c-0.4,0.4-0.7,1-0.7,1.6v5.3c0,0.6,0.2,1.2,0.7,1.6c0.4,0.4,1,0.7,1.6,0.7h0h63.9h0
		c0.6,0,1.2-0.3,1.6-0.7c0.4-0.4,0.7-1,0.7-1.6v-5.3c0-0.6-0.2-1.2-0.7-1.6C67.8,30.2,67.3,29.9,66.7,29.9"/>
	<polyline class="st0" points="66,58.7 3.4,58.7 3.4,62.6 66,62.6 66,58.7 	"/>
	<path class="st0" d="M2.4,63.6v-5.9H67v5.9h-64H2.4 M66.7,56.7H2.7c-0.7,0-1.3,0.6-1.3,1.3v5.3c0,0.7,0.6,1.3,1.3,1.3h63.9l0,0
		c0.3,0,0.7-0.2,0.9-0.4c0.2-0.3,0.4-0.6,0.4-0.9V58C67.9,57.3,67.4,56.7,66.7,56.7"/>
	<path class="st0" d="M2.9,63.1L2.9,63.1h0.5H2.9 M3.4,63.1L3.4,63.1 M3.4,62.6v-3.9H66v3.9H3.4 M67,57.7H2.4v5.9h0.5h64V57.7
		 M2.7,64.6c-0.7,0-1.3-0.6-1.3-1.3V58c0-0.7,0.6-1.3,1.3-1.3h63.9c0.7,0,1.3,0.6,1.3,1.3v5.3c0,0.3-0.1,0.6-0.4,0.9
		c-0.2,0.3-0.6,0.4-0.9,0.4l0,0H2.7 M66.7,55.7L66.7,55.7H2.7h0c-0.6,0-1.2,0.3-1.6,0.7c-0.4,0.4-0.7,1-0.7,1.6v5.3
		c0,0.6,0.2,1.2,0.7,1.6c0.4,0.4,1,0.7,1.6,0.7h0h63.9c0.6,0,1.2-0.3,1.6-0.7c0.4-0.4,0.6-1,0.6-1.6V58c0-0.6-0.2-1.2-0.7-1.6
		C67.8,56,67.3,55.7,66.7,55.7"/>
</g>
</svg>
