<svg id="Layer_1" data-name="Layer 1" xmlns="http://www.w3.org/2000/svg" viewBox="0 0 69.41 58.7"><defs><style>.cls-1{opacity:0.69;}.cls-2{fill:#fff;}</style></defs><g id="Layer_2" data-name="Layer 2"><g id="header"><g class="cls-1"><path class="cls-2" d="M1.8,7.8H67.6a.79.79,0,0,1,.8.8v5.3a.79.79,0,0,1-.8.8H1.8a.79.79,0,0,1-.8-.8V8.6A.86.86,0,0,1,1.8,7.8Z" transform="translate(0 -6.8)"/><path class="cls-2" d="M67.6,15.8H1.8A1.79,1.79,0,0,1,0,14V8.6A1.79,1.79,0,0,1,1.8,6.8H67.6a1.79,1.79,0,0,1,1.8,1.8v5.3a1.76,1.76,0,0,1-1.8,1.9ZM2,13.8H67.4v-5H2Z" transform="translate(0 -6.8)"/><path class="cls-2" d="M1.8,31.8H67.6a.79.79,0,0,1,.8.8v5.3a.79.79,0,0,1-.8.8H1.8a.79.79,0,0,1-.8-.8V32.6A.79.79,0,0,1,1.8,31.8Z" transform="translate(0 -6.8)"/><path class="cls-2" d="M67.6,39.7H1.8A1.79,1.79,0,0,1,0,37.9V32.6a1.79,1.79,0,0,1,1.8-1.8H67.6a1.79,1.79,0,0,1,1.8,1.8v5.3A1.79,1.79,0,0,1,67.6,39.7ZM2,37.7H67.4v-5H2Z" transform="translate(0 -6.8)"/><path class="cls-2" d="M1.8,57.5H67.6a.79.79,0,0,1,.8.8v5.3a.79.79,0,0,1-.8.8H1.8a.79.79,0,0,1-.8-.8V58.3A.86.86,0,0,1,1.8,57.5Z" transform="translate(0 -6.8)"/><path class="cls-2" d="M67.6,65.5H1.8A1.79,1.79,0,0,1,0,63.7V58.4a1.79,1.79,0,0,1,1.8-1.8H67.6a1.79,1.79,0,0,1,1.8,1.8v5.3a1.86,1.86,0,0,1-1.8,1.8ZM2,63.5H67.4V58.6H2Z" transform="translate(0 -6.8)"/></g></g></g></svg>